<svg id="Layer_1" data-name="Layer 1" xmlns="http://www.w3.org/2000/svg" viewBox="0 0 250 250"><defs><style>.cls-1{fill:#006ca9;}</style></defs><title>button2</title><path class="cls-1" d="M192.25,114v-6.59a21.64,21.64,0,0,0-21.61-21.61H83.91A21.64,21.64,0,0,0,62.3,107.44V114Z"/><path class="cls-1" d="M62.3,119.1H46.09a5.4,5.4,0,0,0-5.4,5.4v32.42a5.4,5.4,0,0,0,5.4,5.4H208.46a5.39,5.39,0,0,0,5.4-5.4V124.5a5.39,5.39,0,0,0-5.4-5.4H62.3Z"/><path class="cls-1" d="M162.06,184.66c3.71-6.1,1-12.08-6.28-12.08H98.72c-7.12,0-10,5.86-6.23,12.08L120.25,230c3.65,6,10.41,5.87,14.06,0Z"/><rect class="cls-1" x="94.28" y="13.05" width="20.13" height="61.06"/><rect class="cls-1" x="140.14" y="13.05" width="20.13" height="61.06"/></svg>