<svg id="Layer_1" data-name="Layer 1" xmlns="http://www.w3.org/2000/svg" viewBox="0 0 250 250"><defs><style>.cls-1{fill:#006ca9;}</style></defs><title>button</title><path class="cls-1" d="M193.3,114v-6.6A21.65,21.65,0,0,0,171.67,85.8H84.88a21.66,21.66,0,0,0-21.63,21.63V114Z"/><path class="cls-1" d="M63.25,119.09H47a5.41,5.41,0,0,0-5.41,5.41V157a5.41,5.41,0,0,0,5.41,5.4H209.52a5.41,5.41,0,0,0,5.41-5.4V124.5a5.41,5.41,0,0,0-5.41-5.41H63.25Z"/><path class="cls-1" d="M163.09,184.71c3.71-6.11,1-12.09-6.28-12.09H99.69c-7.12,0-10,5.86-6.22,12.09l27.78,45.38c3.65,6,10.41,5.86,14.06,0Z"/><rect class="cls-1" x="118.2" y="12.96" width="20.15" height="61.11"/></svg>